<svg data-v-423bf9ae="" xmlns="http://www.w3.org/2000/svg" viewBox="0 0 371 90" class="iconLeft"><!----><!----><!----><g data-v-423bf9ae="" id="f7ad4793-43de-49dd-9457-1dded3569868" fill="#ffffff" transform="matrix(5.639098067841383,0,0,5.639098067841383,102.07647913223573,-1.9736834614938772)"><path d="M1.12 13.51L1.12 3.71L2.45 3.71L2.45 13.51L1.12 13.51ZM6.37 13.65L6.37 13.65Q5.56 13.65 4.95 13.46L4.95 13.46L4.95 13.46Q4.34 13.27 4.02 13.05L4.02 13.05L4.17 11.83L4.17 11.83Q4.45 12.08 5.03 12.31L5.03 12.31L5.03 12.31Q5.61 12.53 6.31 12.53L6.31 12.53L6.31 12.53Q6.97 12.53 7.33 12.31L7.33 12.31L7.33 12.31Q7.69 12.08 7.69 11.68L7.69 11.68L7.69 11.68Q7.69 11.20 7.29 10.96L7.29 10.96L7.29 10.96Q6.90 10.71 6.31 10.54L6.31 10.54L6.31 10.54Q5.67 10.37 5.23 10.18L5.23 10.18L5.23 10.18Q4.79 10.00 4.47 9.60L4.47 9.60L4.47 9.60Q4.16 9.21 4.16 8.57L4.16 8.57L4.16 8.57Q4.16 7.69 4.79 7.10L4.79 7.10L4.79 7.10Q5.42 6.51 6.73 6.51L6.73 6.51L6.73 6.51Q7.34 6.51 7.76 6.63L7.76 6.63L7.76 6.63Q8.18 6.75 8.60 6.96L8.60 6.96L8.44 8.11L8.44 8.11Q8.11 7.83 7.70 7.67L7.70 7.67L7.70 7.67Q7.29 7.50 6.76 7.50L6.76 7.50L6.76 7.50Q6.15 7.50 5.79 7.73L5.79 7.73L5.79 7.73Q5.43 7.97 5.43 8.43L5.43 8.43L5.43 8.43Q5.43 8.74 5.60 8.93L5.60 8.93L5.60 8.93Q5.77 9.11 6.08 9.24L6.08 9.24L6.08 9.24Q6.38 9.37 7.03 9.56L7.03 9.56L7.03 9.56Q7.83 9.80 8.41 10.23L8.41 10.23L8.41 10.23Q8.99 10.67 8.99 11.61L8.99 11.61L8.99 11.61Q8.99 12.45 8.39 13.05L8.39 13.05L8.39 13.05Q7.80 13.65 6.37 13.65L6.37 13.65ZM10.49 13.51L10.49 3.71L11.82 3.71L11.82 12.31L16.31 12.31L16.31 13.51L10.49 13.51ZM17.23 5.11L17.23 3.71L18.49 3.71L18.49 5.11L17.23 5.11ZM17.23 13.51L17.23 6.65L18.49 6.65L18.49 13.51L17.23 13.51ZM23.59 6.51L23.59 6.51Q26.39 6.51 26.39 9.73L26.39 9.73L26.39 13.51L25.13 13.51L25.13 9.73L25.13 9.73Q25.13 8.62 24.72 8.13L24.72 8.13L24.72 8.13Q24.30 7.63 23.34 7.63L23.34 7.63L23.34 7.63Q22.72 7.63 22.22 7.85L22.22 7.85L22.22 7.85Q21.71 8.08 21.46 8.53L21.46 8.53L21.46 13.51L20.20 13.51L20.20 6.65L21.18 6.65L21.32 7.38L21.32 7.38Q21.87 6.89 22.42 6.70L22.42 6.70L22.42 6.70Q22.97 6.51 23.59 6.51L23.59 6.51ZM28.01 13.51L28.01 3.01L29.27 3.01L29.27 9.74L31.79 6.65L33.33 6.65L30.60 9.84L33.40 13.51L31.86 13.51L29.27 10.02L29.27 13.51L28.01 13.51ZM37.59 13.65L37.59 13.65Q36.41 13.65 35.58 13.17L35.58 13.17L35.58 13.17Q34.75 12.68 34.31 11.86L34.31 11.86L34.31 11.86Q33.88 11.03 33.88 10.02L33.88 10.02L33.88 10.02Q33.88 9.06 34.28 8.25L34.28 8.25L34.28 8.25Q34.68 7.45 35.44 6.98L35.44 6.98L35.44 6.98Q36.20 6.51 37.24 6.51L37.24 6.51L37.24 6.51Q38.56 6.51 39.38 7.28L39.38 7.28L39.38 7.28Q40.19 8.05 40.19 9.41L40.19 9.41L40.19 9.41Q40.19 9.76 40.14 10.08L40.14 10.08L35.17 10.08L35.17 10.08Q35.29 11.41 35.98 11.97L35.98 11.97L35.98 11.97Q36.67 12.53 37.74 12.53L37.74 12.53L37.74 12.53Q38.82 12.53 39.72 12.12L39.72 12.12L39.89 13.12L39.89 13.12Q38.70 13.65 37.59 13.65L37.59 13.65ZM35.28 9.21L38.89 9.21L38.89 9.21Q38.89 8.47 38.47 8.05L38.47 8.05L38.47 8.05Q38.05 7.63 37.21 7.63L37.21 7.63L37.21 7.63Q36.40 7.63 35.94 8.03L35.94 8.03L35.94 8.03Q35.48 8.43 35.28 9.21L35.28 9.21ZM46.28 3.01L47.54 3.01L47.54 13.51L46.42 13.51L46.28 12.67L46.28 12.67Q45.93 13.15 45.37 13.40L45.37 13.40L45.37 13.40Q44.81 13.65 44.18 13.65L44.18 13.65L44.18 13.65Q43.32 13.65 42.60 13.17L42.60 13.17L42.60 13.17Q41.89 12.70 41.47 11.89L41.47 11.89L41.47 11.89Q41.06 11.07 41.06 10.09L41.06 10.09L41.06 10.09Q41.06 9.14 41.45 8.32L41.45 8.32L41.45 8.32Q41.83 7.49 42.55 7L42.55 7L42.55 7Q43.26 6.51 44.18 6.51L44.18 6.51L44.18 6.51Q44.80 6.51 45.35 6.73L45.35 6.73L45.35 6.73Q45.89 6.96 46.28 7.42L46.28 7.42L46.28 3.01ZM44.41 12.53L44.41 12.53Q44.91 12.53 45.37 12.27L45.37 12.27L45.37 12.27Q45.84 12.01 46.13 11.47L46.13 11.47L46.13 11.47Q46.42 10.92 46.42 10.09L46.42 10.09L46.42 10.09Q46.42 9.32 46.13 8.76L46.13 8.76L46.13 8.76Q45.84 8.20 45.37 7.92L45.37 7.92L45.37 7.92Q44.90 7.63 44.41 7.63L44.41 7.63L44.41 7.63Q43.46 7.63 42.90 8.32L42.90 8.32L42.90 8.32Q42.35 9.02 42.35 10.09L42.35 10.09L42.35 10.09Q42.35 11.13 42.91 11.83L42.91 11.83L42.91 11.83Q43.47 12.53 44.41 12.53L44.41 12.53Z"></path></g><!----><g data-v-423bf9ae="" id="b8983448-6145-405c-9db1-da0ea6a4380e" transform="matrix(1.1024275783335629,0,0,1.1024275783335629,-4.699056236472153,-4.428352100160353)" stroke="none" fill="#F44336 "><path d="M82.263 7.008c-3.768-3.768-9.878-3.768-13.647 0-3.377 3.377-3.725 8.633-1.05 12.4L56.107 30.867a12.471 12.471 0 0 0-7.142-2.238c-2.873 0-5.522.972-7.639 2.602l-8.049-8.049a7.445 7.445 0 0 0-11.676-9.054 7.445 7.445 0 0 0 9.08 11.66l8.088 8.088a12.472 12.472 0 0 0-2.255 5.796H24.047c-.827-4.489-4.759-7.891-9.487-7.89a9.65 9.65 0 0 0-9.65 9.65c0 5.329 4.32 9.65 9.65 9.65 4.672 0 8.569-3.321 9.458-7.731h12.598c.934 5.303 5.211 9.467 10.569 10.232v13.092c-4.511.809-7.935 4.751-7.935 9.495 0 5.329 4.32 9.65 9.65 9.65 5.329 0 9.65-4.32 9.65-9.65 0-4.657-3.299-8.542-7.686-9.449V53.566c6.018-.917 10.643-6.127 10.643-12.397 0-2.939-1.016-5.644-2.715-7.784L70.225 21.95c3.736 2.405 8.768 1.974 12.038-1.296a9.648 9.648 0 0 0 0-13.646zM48.966 49.913c-4.821 0-8.744-3.922-8.744-8.744 0-4.821 3.922-8.744 8.744-8.744s8.744 3.922 8.744 8.744c-.001 4.821-3.923 8.744-8.744 8.744z"></path></g><!----></svg>